<svg width="346.41" height="400" xmlns="http://www.w3.org/2000/svg">
 <g>
  <g stroke="null" id="svg_5">
   <g stroke="null" id="svg_4">
    <path stroke="null" d="m157.15583,14.31212l31.76984,0l0,112.2503l-31.76984,0l0,-112.2503z" fill="#dd952f" id="svg_6"/>
    <path stroke="null" fill="#603913" d="m188.69103,14.59369l0,111.68717l-31.34749,0l0,-111.68717l31.25364,0m0.46927,-0.46927l-32.14526,0l0,112.62572l32.19218,0l0,-112.62572l-0.04693,0l0.00001,0z" class="st26" id="svg_7"/>
    <g stroke="null" opacity="0.6" id="svg_8">
     <path stroke="null" fill="#603913" d="m156.405,26.04397l33.22459,0l0,3.51955l-33.22459,0l0,-3.51955zm0,15.86146l33.22459,0l0,3.51955l-33.22459,0l0,-3.51955zm0,15.86146l33.22459,0l0,3.51955l-33.22459,0l0,-3.51955zm0,17.22235l33.22459,0l0,3.51955l-33.22459,0l0,-3.51955zm0.37542,17.12849l33.22459,0l0,3.51955l-33.22459,0l0,-3.51955zm-0.37542,17.17542l33.22459,0l0,3.51955l-33.22459,0l0,-3.51955z" class="st26" id="svg_9"/>
    </g>
   </g>
  </g>
  <g stroke="null" id="svg_10" transform="rotate(-60 61.1425 134.937)">
   <g stroke="null" id="svg_4">
    <path stroke="null" d="m45.09333,78.81212l31.76984,0l0,112.2503l-31.76984,0l0,-112.2503z" fill="#dd952f" id="svg_11"/>
    <path stroke="null" fill="#603913" d="m76.62853,79.09369l0,111.68717l-31.34749,0l0,-111.68717l31.25364,0m0.46927,-0.46927l-32.14526,0l0,112.62572l32.19218,0l0,-112.62572l-0.04693,0l0.00001,0z" class="st26" id="svg_12"/>
    <g stroke="null" opacity="0.6" id="svg_13">
     <path stroke="null" fill="#603913" d="m44.3425,90.54397l33.22459,0l0,3.51955l-33.22459,0l0,-3.51955zm0,15.86146l33.22459,0l0,3.51955l-33.22459,0l0,-3.51955zm0,15.86146l33.22459,0l0,3.51955l-33.22459,0l0,-3.51955zm0,17.22235l33.22459,0l0,3.51955l-33.22459,0l0,-3.51955zm0.37542,17.12849l33.22459,0l0,3.51955l-33.22459,0l0,-3.51955zm-0.37542,17.17542l33.22459,0l0,3.51955l-33.22459,0l0,-3.51955z" class="st26" id="svg_14"/>
    </g>
   </g>
  </g>
  <ellipse fill="#fff" cx="173.205" cy="199.99999" id="svg_15" rx="49.50129" ry="49.50129" stroke="#000" stroke-width="0"/>
  <g stroke="null" id="svg_16">
   <path stroke="null" id="svg_17" fill="#5b2a2a" d="m176.63765,201.10945c0.75543,-0.90652 1.20869,-2.26629 0.90652,-3.47498a6.04345,6.04345 0 0 0 -0.90652,-2.11521c-1.0576,-1.66195 -2.41738,-3.3239 -3.77716,-4.83476l-6.6478,-7.55431c-0.75543,-0.75543 -1.51086,-1.51086 -2.26629,-1.96412c-1.81304,-0.60435 -3.77716,0.30217 -5.43911,1.51086c-2.26629,1.51086 -4.53259,3.3239 -5.74128,5.74128c-1.20869,2.41738 0.60435,8.30974 1.51086,9.97169c1.51086,2.41738 3.47498,4.53259 5.59019,6.49671c0.90652,0.75543 1.81304,1.35978 2.87064,1.81304c1.51086,0.45326 3.02173,0.45326 4.3815,0.15109c3.77716,-0.45326 7.55431,-2.26629 9.51843,-5.59019l0,-0.15109zm-22.66294,1.96412l-1.35978,-1.96412l-3.17281,-3.77716c-0.75543,-0.75543 -1.51086,-1.51086 -2.41738,-1.81304c-0.90652,-0.30217 -1.81304,0.45326 -1.81304,0.45326c-1.20869,0.90652 -1.96412,2.26629 -2.41738,3.77716a18.88578,18.88578 0 0 0 -0.45326,7.55431a6.04345,6.04345 0 0 0 3.02173,3.3239c1.51086,0.75543 3.02173,1.0576 4.68367,1.35978c1.0576,0 1.96412,0.30217 3.02173,0s1.96412,-0.30217 2.56847,-1.0576c1.0576,-1.0576 1.20869,-2.71955 0.75543,-4.23042c-0.45326,-1.35978 -1.51086,-2.56847 -2.26629,-3.62607l-0.15109,0zm41.85089,1.0576a15.10863,15.10863 0 0 0 -4.68367,-4.23042c-1.96412,-0.90652 -4.3815,-1.0576 -6.04345,0l-1.81304,1.66195c-1.0576,1.0576 -3.47498,2.11521 -3.47498,2.11521c-1.51086,0.45326 -3.02173,0.90652 -4.23042,1.81304c-1.20869,0.75543 -2.26629,2.11521 -2.41738,3.62607c-0.30217,2.26629 1.0576,4.23042 2.56847,5.74128c1.20869,1.20869 2.41738,2.11521 3.77716,3.02173c1.0576,0.75543 2.26629,1.51086 3.47498,1.66195c1.20869,0.30217 2.56847,0.30217 3.62607,-0.30217l1.35978,-0.90652c1.0576,-0.45326 2.26629,-0.45326 3.47498,-0.45326c1.20869,0 2.56847,0 3.77716,-0.45326c0.75543,0 1.51086,-0.45326 2.26629,-0.90652l0.75543,-1.51086a9.06518,9.06518 0 0 0 0.30217,-6.6478c-0.60435,-1.51086 -1.66195,-3.02173 -2.71955,-4.23042zm6.94997,-13.59776a7.40323,7.40323 0 0 0 -6.04345,-2.41738c-0.60435,0 -1.20869,0.15109 -1.81304,0.60435l-1.20869,1.0576c-1.35978,1.20869 -2.56847,2.71955 -3.02173,4.53259c-0.30217,1.0576 -0.30217,2.11521 0.30217,2.87064c0.45326,0.60435 1.51086,0.75543 2.26629,1.20869l2.56847,1.51086c0.90652,0.60435 1.81304,1.0576 3.02173,1.0576c1.51086,0 2.87064,-1.51086 3.77716,-2.71955l1.0576,-1.51086c1.0576,-2.11521 0.60435,-4.53259 -0.90652,-6.34562l0,0.15109zm-27.19553,0.15109a8506.76083,8506.76083 0 0 0 4.23042,5.74128c0.90652,0.90652 1.96412,1.81304 4.68367,1.0576c1.51086,-0.45326 3.02173,-1.66195 3.92824,-3.02173l0.90652,-1.66195l0.30217,-2.11521a108.78211,108.78211 0 0 0 0,-4.98585c-0.15109,-0.60435 -0.60435,-0.90652 -1.0576,-1.35978l-1.96412,-1.66195c-1.51086,-1.0576 -3.3239,-1.51086 -5.13693,-1.96412a18.13035,18.13035 0 0 0 -3.62607,-0.45326c-1.20869,0 -2.41738,0.15109 -3.47498,0.90652c0,0 -1.0576,1.0576 -1.35978,2.41738c-0.30217,1.20869 0,2.56847 0.45326,3.77716l2.11521,3.3239z"/>
  </g>
 </g>

</svg>
